<?xml version="1.0" encoding="UTF-8" standalone="no"?>
<!-- Created with Inkscape (http://www.inkscape.org/) -->

<svg
   xmlns:dc="http://purl.org/dc/elements/1.1/"
   xmlns:cc="http://creativecommons.org/ns#"
   xmlns:rdf="http://www.w3.org/1999/02/22-rdf-syntax-ns#"
   xmlns:svg="http://www.w3.org/2000/svg"
   xmlns="http://www.w3.org/2000/svg"
   xmlns:sodipodi="http://sodipodi.sourceforge.net/DTD/sodipodi-0.dtd"
   xmlns:inkscape="http://www.inkscape.org/namespaces/inkscape"
   width="538.77863"
   height="417.42856"
   viewBox="0 0 538.77861 417.42856"
   id="svg4916"
   version="1.1"
   inkscape:version="0.91 r13725"
   sodipodi:docname="logo-daniel.svg">
  <defs
     id="defs4918" />
  <sodipodi:namedview
     id="base"
     pagecolor="#ffffff"
     bordercolor="#666666"
     borderopacity="0"
     inkscape:pageopacity="0.0"
     inkscape:pageshadow="2"
     inkscape:zoom="0.35"
     inkscape:cx="-242.75356"
     inkscape:cy="177.28572"
     inkscape:document-units="px"
     inkscape:current-layer="layer1"
     showgrid="false"
     fit-margin-top="0"
     fit-margin-left="0"
     fit-margin-right="0"
     fit-margin-bottom="0"
     units="px"
     showborder="true"
     inkscape:window-width="1366"
     inkscape:window-height="705"
     inkscape:window-x="-8"
     inkscape:window-y="-8"
     inkscape:window-maximized="1" />
  <metadata
     id="metadata4921">
    <rdf:RDF>
      <cc:Work
         rdf:about="">
        <dc:format>image/svg+xml</dc:format>
        <dc:type
           rdf:resource="http://purl.org/dc/dcmitype/StillImage" />
        <dc:title></dc:title>
      </cc:Work>
    </rdf:RDF>
  </metadata>
  <g
     inkscape:label="Capa 1"
     inkscape:groupmode="layer"
     id="layer1"
     transform="translate(-90.610699,-292.21934)">
    <path
       style="opacity:1;fill:#007bff;fill-opacity:1;fill-rule:nonzero;stroke:#000000;stroke-width:0.51330525;stroke-linecap:round;stroke-linejoin:round;stroke-miterlimit:4;stroke-dasharray:none;stroke-opacity:1"
       d="m -363.41837,953.83267 0,-61.27289 51.60173,0 51.60176,0 0,-222.11417 0,-222.11419 -51.60176,0 -51.60173,0 0,-61.27289 0,-61.27287 335.411377,0 335.411323,0 0,-28.08339 0,-28.08341 59.342,0 59.342,0 0,42.61025 c 0,34.79541 1.73068,44.16006 9.43662,51.0607 79.94822,58.02136 151.30387,150.28412 170.59346,245.88291 4.24475,27.46927 3.93866,101.80526 -0.53615,130.20488 -7.22294,45.84104 -33.78743,106.01872 -56.89298,128.88203 -4.99242,4.94008 -9.07712,11.93385 -9.07712,15.54175 0,8.48385 -71.5615,80.24343 -80.0219,80.24343 -3.54057,0 -9.52889,3.68598 -13.30738,8.19106 -5.6911,6.78546 -25.24485,17.49694 -35.67507,19.54268 -1.41904,0.27827 -5.14701,2.12448 -8.28435,4.10252 -3.13733,1.9781 -26.08174,7.11283 -50.98763,11.41053 -37.51669,6.4738 -102.695,7.8139 -380.01876,7.8139 l -334.73544,0 z m 562.45904,-122.3357 -64.50218,-61.02226 -140.6147373,-0.23034 -140.6147627,-0.23034 0,61.27288 0,61.27287 205.116932,-0.0204 205.116918,-0.0204 -64.50217,-61.02226 0,3e-4 z m 246.54945,-32.5217 c 34.16098,-50.08625 47.82585,-135.90881 29.72343,-186.6786 -4.14521,-11.62554 -7.26284,-21.67978 -6.92814,-22.34279 2.23735,-4.43185 -22.20543,-48.95918 -31.22757,-56.88712 l -11.06951,-9.727 0,148.86751 c 0,81.87712 0.99653,148.86749 2.21449,148.86749 1.218,0 8.99729,-9.94475 17.2873,-22.09949 z m -138.18579,-189.20702 0,-155.1397 -11.61041,-3.07884 c -17.95136,-4.76035 -334.12127,-3.77516 -334.12127,1.04112 0,6.39765 65.989009,67.22561 72.929467,67.22561 3.309859,0 43.809189,37.9126 89.998483,84.25021 46.1893,46.33761 86.33157,84.25022 89.20507,84.25022 2.87344,0 23.36712,17.14915 45.54144,38.10923 22.17435,20.96007 42.05852,38.19308 44.18709,38.29555 2.12857,0.1024 3.87013,-69.62656 3.87013,-154.9534 z M 8.1142271,658.60445 c 0,-10.55501 -143.4850971,-140.00211 -150.4580171,-135.7378 -5.10828,3.12399 -5.96139,131.51451 -0.90709,136.51579 4.99434,4.94198 151.3651071,4.18965 151.3651071,-0.77799 z"
       id="path4789"
       inkscape:connector-curvature="0"
       inkscape:export-xdpi="1.9302951"
       inkscape:export-ydpi="1.9302951"
       sodipodi:nodetypes="ccccccccccccccccsccsssssccsscccccccccccccsscscsssscsssssscsssss" />
    <path
       sodipodi:type="star"
       style="opacity:1;fill:#ff00ff;fill-opacity:0;fill-rule:nonzero;stroke:none;stroke-width:0.1;stroke-linecap:round;stroke-linejoin:round;stroke-miterlimit:4;stroke-dasharray:none;stroke-opacity:1"
       id="path5484"
       sodipodi:sides="5"
       sodipodi:cx="20"
       sodipodi:cy="903.79077"
       sodipodi:r1="225.93118"
       sodipodi:r2="105.04249"
       sodipodi:arg1="0.5599398"
       sodipodi:arg2="0.018501417"
       inkscape:flatsided="false"
       inkscape:rounded="0"
       inkscape:randomized="0"
       d="m 211.42857,1023.7908 -86.40406,-118.0567 -159.996612,217.1981 85.57825,-118.6567 -256.009348,-85.04788 139.294329,44.72283 1.774133,-269.76061 0.510381,146.29689 257.105827,-81.67331 -138.9789,45.69363 z"
       inkscape:transform-center-x="16.987313"
       inkscape:transform-center-y="4.7702496" />
    <path
       sodipodi:type="star"
       style="opacity:1;fill:#ff00ff;fill-opacity:0;fill-rule:nonzero;stroke:none;stroke-width:0.1;stroke-linecap:round;stroke-linejoin:round;stroke-miterlimit:4;stroke-dasharray:none;stroke-opacity:1"
       id="path5486"
       sodipodi:sides="5"
       sodipodi:cx="262.85715"
       sodipodi:cy="995.21936"
       sodipodi:r1="28.571428"
       sodipodi:r2="13.283743"
       sodipodi:arg1="0.64350111"
       sodipodi:arg2="1.2718196"
       inkscape:flatsided="false"
       inkscape:rounded="0"
       inkscape:randomized="0"
       d="m 285.71429,1012.3622 -18.94452,-4.4484 -13.1532,14.3414 -1.6235,-19.3919 -17.70406,-8.07771 17.94114,-7.53647 2.2115,-19.33371 12.71173,14.73414 19.07084,-3.87119 -10.08486,16.64267 z"
       inkscape:transform-center-x="2.600532"
       inkscape:transform-center-y="-0.1340427" />
  </g>
</svg>
